<svg width="497" height="241" viewBox="0 0 497 241" fill="none" xmlns="http://www.w3.org/2000/svg">
<path d="M85.9 100V43.4L95 43.6L69.7 74.6L67.3 71.6H113.7V85.6H59.7L52.9 72.5L88.6 29.4H102.3V100H85.9ZM150.911 101C144.644 101 139.278 99.5667 134.811 96.7C130.411 93.8333 127.044 89.7333 124.711 84.4C122.378 79 121.211 72.5333 121.211 65C121.211 57.4667 122.378 51.0333 124.711 45.7C127.044 40.3 130.411 36.1667 134.811 33.3C139.278 30.4333 144.644 29 150.911 29C157.178 29 162.544 30.4333 167.011 33.3C171.478 36.1667 174.878 40.3 177.211 45.7C179.544 51.0333 180.711 57.4667 180.711 65C180.711 72.5333 179.544 79 177.211 84.4C174.878 89.7333 171.478 93.8333 167.011 96.7C162.544 99.5667 157.178 101 150.911 101ZM150.911 86.6C155.244 86.6 158.578 84.7333 160.911 81C163.311 77.2667 164.511 71.9333 164.511 65C164.511 57.8667 163.311 52.4 160.911 48.6C158.578 44.7333 155.244 42.8 150.911 42.8C146.578 42.8 143.211 44.7333 140.811 48.6C138.478 52.4 137.311 57.8667 137.311 65C137.311 71.9333 138.478 77.2667 140.811 81C143.211 84.7333 146.578 86.6 150.911 86.6ZM219.591 100V43.4L228.691 43.6L203.391 74.6L200.991 71.6H247.391V85.6H193.391L186.591 72.5L222.291 29.4H235.991V100H219.591Z" fill="#464F72"/>
<path d="M64.73 170.3C63.25 170.3 61.88 170.03 60.62 169.49C59.38 168.95 58.29 168.2 57.35 167.24C56.43 166.26 55.71 165.12 55.19 163.82C54.69 162.5 54.44 161.06 54.44 159.5C54.44 157.94 54.69 156.51 55.19 155.21C55.71 153.89 56.43 152.75 57.35 151.79C58.29 150.81 59.38 150.05 60.62 149.51C61.88 148.97 63.25 148.7 64.73 148.7C66.21 148.7 67.57 148.97 68.81 149.51C70.07 150.05 71.16 150.81 72.08 151.79C73.02 152.77 73.74 153.92 74.24 155.24C74.76 156.54 75.02 157.96 75.02 159.5C75.02 161.04 74.76 162.47 74.24 163.79C73.74 165.09 73.02 166.23 72.08 167.21C71.16 168.19 70.07 168.95 68.81 169.49C67.57 170.03 66.21 170.3 64.73 170.3ZM64.73 167.15C65.75 167.15 66.68 166.96 67.52 166.58C68.38 166.2 69.12 165.67 69.74 164.99C70.36 164.29 70.84 163.48 71.18 162.56C71.54 161.62 71.72 160.6 71.72 159.5C71.72 158.4 71.54 157.39 71.18 156.47C70.84 155.53 70.36 154.72 69.74 154.04C69.12 153.34 68.38 152.8 67.52 152.42C66.68 152.04 65.75 151.85 64.73 151.85C63.71 151.85 62.77 152.04 61.91 152.42C61.07 152.8 60.33 153.33 59.69 154.01C59.07 154.69 58.59 155.5 58.25 156.44C57.91 157.36 57.74 158.38 57.74 159.5C57.74 160.6 57.91 161.62 58.25 162.56C58.59 163.5 59.07 164.31 59.69 164.99C60.33 165.67 61.07 166.2 61.91 166.58C62.77 166.96 63.71 167.15 64.73 167.15ZM78.6268 170V147.8H81.7168V157.49L81.1768 157.85C81.3768 157.15 81.7668 156.51 82.3468 155.93C82.9268 155.33 83.6168 154.85 84.4168 154.49C85.2168 154.11 86.0368 153.92 86.8768 153.92C88.0768 153.92 89.0768 154.16 89.8768 154.64C90.6768 155.1 91.2768 155.81 91.6768 156.77C92.0768 157.73 92.2768 158.94 92.2768 160.4V170H89.1868V160.61C89.1868 159.71 89.0668 158.97 88.8268 158.39C88.5868 157.79 88.2168 157.36 87.7168 157.1C87.2168 156.82 86.5968 156.7 85.8568 156.74C85.2568 156.74 84.7068 156.84 84.2068 157.04C83.7068 157.22 83.2668 157.48 82.8868 157.82C82.5268 158.16 82.2368 158.56 82.0168 159.02C81.8168 159.46 81.7168 159.94 81.7168 160.46V170H80.1868C79.9268 170 79.6668 170 79.4068 170C79.1468 170 78.8868 170 78.6268 170ZM105.657 170V149H108.567L121.407 166.19L120.927 166.46C120.847 165.96 120.777 165.42 120.717 164.84C120.657 164.24 120.597 163.61 120.537 162.95C120.497 162.27 120.457 161.56 120.417 160.82C120.397 160.06 120.377 159.27 120.357 158.45C120.337 157.63 120.327 156.78 120.327 155.9V149H123.567V170H120.597L107.967 153.44L108.297 153.02C108.397 154.24 108.477 155.28 108.537 156.14C108.617 156.98 108.677 157.7 108.717 158.3C108.777 158.88 108.817 159.36 108.837 159.74C108.857 160.1 108.867 160.4 108.867 160.64C108.887 160.88 108.897 161.09 108.897 161.27V170H105.657ZM135.746 170.3C134.206 170.3 132.826 169.95 131.606 169.25C130.406 168.53 129.456 167.56 128.756 166.34C128.056 165.1 127.706 163.69 127.706 162.11C127.706 160.53 128.056 159.13 128.756 157.91C129.456 156.67 130.406 155.7 131.606 155C132.826 154.28 134.206 153.92 135.746 153.92C137.266 153.92 138.626 154.28 139.826 155C141.046 155.7 142.006 156.67 142.706 157.91C143.406 159.13 143.756 160.53 143.756 162.11C143.756 163.69 143.406 165.1 142.706 166.34C142.006 167.56 141.046 168.53 139.826 169.25C138.626 169.95 137.266 170.3 135.746 170.3ZM135.746 167.48C136.686 167.48 137.526 167.25 138.266 166.79C139.006 166.31 139.586 165.67 140.006 164.87C140.426 164.05 140.626 163.13 140.606 162.11C140.626 161.07 140.426 160.15 140.006 159.35C139.586 158.53 139.006 157.89 138.266 157.43C137.526 156.97 136.686 156.74 135.746 156.74C134.806 156.74 133.956 156.98 133.196 157.46C132.456 157.92 131.876 158.56 131.456 159.38C131.036 160.18 130.836 161.09 130.856 162.11C130.836 163.13 131.036 164.05 131.456 164.87C131.876 165.67 132.456 166.31 133.196 166.79C133.956 167.25 134.806 167.48 135.746 167.48ZM147.573 162.77C147.433 161.51 147.303 160.21 147.183 158.87C147.083 157.51 147.003 156.17 146.943 154.85C146.883 153.53 146.853 152.28 146.853 151.1V149H150.093V151.1C150.093 152.34 150.063 153.64 150.003 155C149.943 156.36 149.853 157.71 149.733 159.05C149.633 160.37 149.513 161.61 149.373 162.77H147.573ZM148.383 170.33C147.723 170.33 147.213 170.14 146.853 169.76C146.493 169.36 146.313 168.8 146.313 168.08C146.313 167.42 146.503 166.88 146.883 166.46C147.263 166.04 147.763 165.83 148.383 165.83C149.043 165.83 149.553 166.03 149.913 166.43C150.273 166.81 150.453 167.36 150.453 168.08C150.453 168.74 150.263 169.28 149.883 169.7C149.503 170.12 149.003 170.33 148.383 170.33ZM169.881 170.3C168.741 170.3 167.681 170.15 166.701 169.85C165.741 169.55 164.861 169.1 164.061 168.5C163.281 167.88 162.581 167.12 161.961 166.22L164.181 163.67C165.161 165.07 166.101 166.04 167.001 166.58C167.901 167.12 168.971 167.39 170.211 167.39C170.971 167.39 171.661 167.27 172.281 167.03C172.901 166.79 173.391 166.46 173.751 166.04C174.111 165.62 174.291 165.14 174.291 164.6C174.291 164.24 174.231 163.9 174.111 163.58C173.991 163.26 173.801 162.97 173.541 162.71C173.301 162.45 172.981 162.21 172.581 161.99C172.201 161.77 171.751 161.58 171.231 161.42C170.711 161.24 170.111 161.09 169.431 160.97C168.351 160.75 167.411 160.46 166.611 160.1C165.811 159.74 165.141 159.29 164.601 158.75C164.061 158.21 163.661 157.6 163.401 156.92C163.141 156.22 163.011 155.44 163.011 154.58C163.011 153.74 163.191 152.96 163.551 152.24C163.931 151.52 164.441 150.9 165.081 150.38C165.741 149.84 166.511 149.43 167.391 149.15C168.271 148.85 169.221 148.7 170.241 148.7C171.321 148.7 172.311 148.84 173.211 149.12C174.111 149.4 174.911 149.82 175.611 150.38C176.311 150.92 176.891 151.59 177.351 152.39L175.071 154.64C174.671 153.98 174.221 153.43 173.721 152.99C173.221 152.53 172.671 152.19 172.071 151.97C171.471 151.73 170.831 151.61 170.151 151.61C169.371 151.61 168.691 151.73 168.111 151.97C167.531 152.21 167.071 152.55 166.731 152.99C166.411 153.41 166.251 153.91 166.251 154.49C166.251 154.91 166.331 155.3 166.491 155.66C166.651 156 166.891 156.31 167.211 156.59C167.551 156.85 168.001 157.09 168.561 157.31C169.121 157.51 169.791 157.69 170.571 157.85C171.671 158.09 172.651 158.4 173.511 158.78C174.371 159.14 175.101 159.57 175.701 160.07C176.301 160.57 176.751 161.13 177.051 161.75C177.371 162.37 177.531 163.04 177.531 163.76C177.531 165.1 177.221 166.26 176.601 167.24C175.981 168.22 175.101 168.98 173.961 169.52C172.821 170.04 171.461 170.3 169.881 170.3ZM188.422 170.3C186.882 170.3 185.502 169.95 184.282 169.25C183.082 168.53 182.132 167.56 181.432 166.34C180.732 165.1 180.382 163.69 180.382 162.11C180.382 160.53 180.732 159.13 181.432 157.91C182.132 156.67 183.082 155.7 184.282 155C185.502 154.28 186.882 153.92 188.422 153.92C189.942 153.92 191.302 154.28 192.502 155C193.722 155.7 194.682 156.67 195.382 157.91C196.082 159.13 196.432 160.53 196.432 162.11C196.432 163.69 196.082 165.1 195.382 166.34C194.682 167.56 193.722 168.53 192.502 169.25C191.302 169.95 189.942 170.3 188.422 170.3ZM188.422 167.48C189.362 167.48 190.202 167.25 190.942 166.79C191.682 166.31 192.262 165.67 192.682 164.87C193.102 164.05 193.302 163.13 193.282 162.11C193.302 161.07 193.102 160.15 192.682 159.35C192.262 158.53 191.682 157.89 190.942 157.43C190.202 156.97 189.362 156.74 188.422 156.74C187.482 156.74 186.632 156.98 185.872 157.46C185.132 157.92 184.552 158.56 184.132 159.38C183.712 160.18 183.512 161.09 183.532 162.11C183.512 163.13 183.712 164.05 184.132 164.87C184.552 165.67 185.132 166.31 185.872 166.79C186.632 167.25 187.482 167.48 188.422 167.48ZM199.739 170V154.25H202.859V157.61L202.289 157.97C202.449 157.45 202.699 156.95 203.039 156.47C203.399 155.99 203.829 155.57 204.329 155.21C204.849 154.83 205.399 154.53 205.979 154.31C206.579 154.09 207.189 153.98 207.809 153.98C208.709 153.98 209.499 154.13 210.179 154.43C210.859 154.73 211.419 155.18 211.859 155.78C212.299 156.38 212.619 157.13 212.819 158.03L212.339 157.91L212.549 157.4C212.769 156.94 213.069 156.51 213.449 156.11C213.849 155.69 214.299 155.32 214.799 155C215.299 154.68 215.829 154.43 216.389 154.25C216.949 154.07 217.499 153.98 218.039 153.98C219.219 153.98 220.189 154.22 220.949 154.7C221.729 155.18 222.309 155.91 222.689 156.89C223.089 157.87 223.289 159.09 223.289 160.55V170H220.169V160.73C220.169 159.83 220.049 159.1 219.809 158.54C219.589 157.96 219.249 157.53 218.789 157.25C218.329 156.97 217.739 156.83 217.019 156.83C216.459 156.83 215.929 156.93 215.429 157.13C214.949 157.31 214.529 157.57 214.169 157.91C213.809 158.25 213.529 158.65 213.329 159.11C213.129 159.55 213.029 160.04 213.029 160.58V170H209.909V160.67C209.909 159.85 209.789 159.16 209.549 158.6C209.309 158.02 208.959 157.58 208.499 157.28C208.039 156.98 207.479 156.83 206.819 156.83C206.259 156.83 205.739 156.93 205.259 157.13C204.779 157.31 204.359 157.57 203.999 157.91C203.639 158.23 203.359 158.62 203.159 159.08C202.959 159.52 202.859 160 202.859 160.52V170H199.739ZM234.776 170.3C233.156 170.3 231.716 169.96 230.456 169.28C229.216 168.58 228.236 167.63 227.516 166.43C226.816 165.23 226.466 163.85 226.466 162.29C226.466 161.05 226.666 159.92 227.066 158.9C227.466 157.88 228.016 157 228.716 156.26C229.436 155.5 230.286 154.92 231.266 154.52C232.266 154.1 233.346 153.89 234.506 153.89C235.526 153.89 236.476 154.09 237.356 154.49C238.236 154.87 238.996 155.4 239.636 156.08C240.296 156.76 240.796 157.57 241.136 158.51C241.496 159.43 241.666 160.44 241.646 161.54L241.616 162.86H228.746L228.056 160.4H238.946L238.496 160.91V160.19C238.436 159.53 238.216 158.94 237.836 158.42C237.456 157.9 236.976 157.49 236.396 157.19C235.816 156.89 235.186 156.74 234.506 156.74C233.426 156.74 232.516 156.95 231.776 157.37C231.036 157.77 230.476 158.37 230.096 159.17C229.716 159.95 229.526 160.92 229.526 162.08C229.526 163.18 229.756 164.14 230.216 164.96C230.676 165.76 231.326 166.38 232.166 166.82C233.006 167.26 233.976 167.48 235.076 167.48C235.856 167.48 236.576 167.35 237.236 167.09C237.916 166.83 238.646 166.36 239.426 165.68L240.986 167.87C240.506 168.35 239.916 168.77 239.216 169.13C238.536 169.49 237.806 169.78 237.026 170C236.266 170.2 235.516 170.3 234.776 170.3ZM246.954 170V150.23H250.044V170H246.954ZM243.684 157.25V154.25H253.704V157.25H243.684ZM256.517 170V147.8H259.607V157.49L259.067 157.85C259.267 157.15 259.657 156.51 260.237 155.93C260.817 155.33 261.507 154.85 262.307 154.49C263.107 154.11 263.927 153.92 264.767 153.92C265.967 153.92 266.967 154.16 267.767 154.64C268.567 155.1 269.167 155.81 269.567 156.77C269.967 157.73 270.167 158.94 270.167 160.4V170H267.077V160.61C267.077 159.71 266.957 158.97 266.717 158.39C266.477 157.79 266.107 157.36 265.607 157.1C265.107 156.82 264.487 156.7 263.747 156.74C263.147 156.74 262.597 156.84 262.097 157.04C261.597 157.22 261.157 157.48 260.777 157.82C260.417 158.16 260.127 158.56 259.907 159.02C259.707 159.46 259.607 159.94 259.607 160.46V170H258.077C257.817 170 257.557 170 257.297 170C257.037 170 256.777 170 256.517 170ZM274.869 170V154.25H277.959V170H274.869ZM276.369 150.77C275.709 150.77 275.199 150.6 274.839 150.26C274.479 149.92 274.299 149.44 274.299 148.82C274.299 148.24 274.479 147.77 274.839 147.41C275.219 147.05 275.729 146.87 276.369 146.87C277.029 146.87 277.539 147.04 277.899 147.38C278.259 147.72 278.439 148.2 278.439 148.82C278.439 149.4 278.249 149.87 277.869 150.23C277.509 150.59 277.009 150.77 276.369 150.77ZM282.709 170V154.25H285.799V157.49L285.259 157.85C285.459 157.15 285.849 156.51 286.429 155.93C287.009 155.33 287.699 154.85 288.499 154.49C289.299 154.11 290.119 153.92 290.959 153.92C292.159 153.92 293.159 154.16 293.959 154.64C294.759 155.1 295.359 155.81 295.759 156.77C296.159 157.73 296.359 158.94 296.359 160.4V170H293.269V160.61C293.269 159.71 293.149 158.97 292.909 158.39C292.669 157.79 292.299 157.36 291.799 157.1C291.299 156.82 290.679 156.7 289.939 156.74C289.339 156.74 288.789 156.84 288.289 157.04C287.789 157.22 287.349 157.48 286.969 157.82C286.609 158.16 286.319 158.56 286.099 159.02C285.899 159.46 285.799 159.94 285.799 160.46V170H284.269C284.009 170 283.749 170 283.489 170C283.229 170 282.969 170 282.709 170ZM307.601 176.9C306.481 176.9 305.361 176.72 304.241 176.36C303.141 176.02 302.251 175.57 301.571 175.01L302.711 172.61C303.111 172.91 303.581 173.17 304.121 173.39C304.661 173.63 305.231 173.81 305.831 173.93C306.431 174.07 307.021 174.14 307.601 174.14C308.701 174.14 309.621 173.96 310.361 173.6C311.101 173.24 311.661 172.71 312.041 172.01C312.421 171.31 312.611 170.44 312.611 169.4V166.37L312.941 166.58C312.841 167.2 312.511 167.8 311.951 168.38C311.411 168.94 310.731 169.4 309.911 169.76C309.091 170.12 308.251 170.3 307.391 170.3C305.891 170.3 304.551 169.95 303.371 169.25C302.211 168.53 301.291 167.56 300.611 166.34C299.931 165.1 299.591 163.69 299.591 162.11C299.591 160.53 299.921 159.13 300.581 157.91C301.261 156.67 302.181 155.7 303.341 155C304.521 154.28 305.841 153.92 307.301 153.92C307.901 153.92 308.481 154 309.041 154.16C309.601 154.3 310.121 154.51 310.601 154.79C311.081 155.05 311.511 155.34 311.891 155.66C312.271 155.98 312.581 156.32 312.821 156.68C313.061 157.04 313.211 157.38 313.271 157.7L312.611 157.94V154.25H315.701V169.04C315.701 170.3 315.511 171.41 315.131 172.37C314.771 173.35 314.241 174.17 313.541 174.83C312.841 175.51 311.991 176.02 310.991 176.36C309.991 176.72 308.861 176.9 307.601 176.9ZM307.721 167.45C308.701 167.45 309.571 167.22 310.331 166.76C311.091 166.3 311.681 165.67 312.101 164.87C312.521 164.07 312.731 163.15 312.731 162.11C312.731 161.07 312.511 160.15 312.071 159.35C311.651 158.53 311.061 157.89 310.301 157.43C309.561 156.97 308.701 156.74 307.721 156.74C306.761 156.74 305.901 156.98 305.141 157.46C304.401 157.92 303.811 158.56 303.371 159.38C302.951 160.18 302.741 161.09 302.741 162.11C302.741 163.13 302.951 164.05 303.371 164.87C303.811 165.67 304.401 166.3 305.141 166.76C305.901 167.22 306.761 167.45 307.721 167.45ZM332.311 170L326.941 154.25L330.061 154.22L333.901 166.01L333.211 165.95L337.381 156.74H339.241L343.441 165.98L342.631 166.04L346.501 154.25H349.621L344.311 170H342.181L337.801 159.98L338.491 160.07L334.411 170H332.311ZM359.346 170.3C357.726 170.3 356.286 169.96 355.026 169.28C353.786 168.58 352.806 167.63 352.086 166.43C351.386 165.23 351.036 163.85 351.036 162.29C351.036 161.05 351.236 159.92 351.636 158.9C352.036 157.88 352.586 157 353.286 156.26C354.006 155.5 354.856 154.92 355.836 154.52C356.836 154.1 357.916 153.89 359.076 153.89C360.096 153.89 361.046 154.09 361.926 154.49C362.806 154.87 363.566 155.4 364.206 156.08C364.866 156.76 365.366 157.57 365.706 158.51C366.066 159.43 366.236 160.44 366.216 161.54L366.186 162.86H353.316L352.626 160.4H363.516L363.066 160.91V160.19C363.006 159.53 362.786 158.94 362.406 158.42C362.026 157.9 361.546 157.49 360.966 157.19C360.386 156.89 359.756 156.74 359.076 156.74C357.996 156.74 357.086 156.95 356.346 157.37C355.606 157.77 355.046 158.37 354.666 159.17C354.286 159.95 354.096 160.92 354.096 162.08C354.096 163.18 354.326 164.14 354.786 164.96C355.246 165.76 355.896 166.38 356.736 166.82C357.576 167.26 358.546 167.48 359.646 167.48C360.426 167.48 361.146 167.35 361.806 167.09C362.486 166.83 363.216 166.36 363.996 165.68L365.556 167.87C365.076 168.35 364.486 168.77 363.786 169.13C363.106 169.49 362.376 169.78 361.596 170C360.836 170.2 360.086 170.3 359.346 170.3ZM369.574 170V154.25H372.664V157.49L372.124 157.85C372.324 157.15 372.714 156.51 373.294 155.93C373.874 155.33 374.564 154.85 375.364 154.49C376.164 154.11 376.984 153.92 377.824 153.92C379.024 153.92 380.024 154.16 380.824 154.64C381.624 155.1 382.224 155.81 382.624 156.77C383.024 157.73 383.224 158.94 383.224 160.4V170H380.134V160.61C380.134 159.71 380.014 158.97 379.774 158.39C379.534 157.79 379.164 157.36 378.664 157.1C378.164 156.82 377.544 156.7 376.804 156.74C376.204 156.74 375.654 156.84 375.154 157.04C374.654 157.22 374.214 157.48 373.834 157.82C373.474 158.16 373.184 158.56 372.964 159.02C372.764 159.46 372.664 159.94 372.664 160.46V170H371.134C370.874 170 370.614 170 370.354 170C370.094 170 369.834 170 369.574 170ZM389.366 170V150.23H392.456V170H389.366ZM386.096 157.25V154.25H396.116V157.25H386.096ZM411.208 170L405.838 154.25L408.958 154.22L412.798 166.01L412.108 165.95L416.278 156.74H418.138L422.338 165.98L421.528 166.04L425.398 154.25H428.518L423.208 170H421.078L416.698 159.98L417.388 160.07L413.308 170H411.208ZM431.332 170V154.25H434.452V159.2L434.152 158C434.372 157.24 434.742 156.55 435.262 155.93C435.802 155.31 436.412 154.82 437.092 154.46C437.792 154.1 438.512 153.92 439.252 153.92C439.592 153.92 439.912 153.95 440.212 154.01C440.532 154.07 440.782 154.14 440.962 154.22L440.152 157.58C439.912 157.48 439.642 157.4 439.342 157.34C439.062 157.26 438.782 157.22 438.502 157.22C437.962 157.22 437.442 157.33 436.942 157.55C436.462 157.75 436.032 158.04 435.652 158.42C435.292 158.78 435.002 159.21 434.782 159.71C434.562 160.19 434.452 160.72 434.452 161.3V170H431.332ZM449.838 170.3C448.298 170.3 446.918 169.95 445.698 169.25C444.498 168.53 443.548 167.56 442.848 166.34C442.148 165.1 441.798 163.69 441.798 162.11C441.798 160.53 442.148 159.13 442.848 157.91C443.548 156.67 444.498 155.7 445.698 155C446.918 154.28 448.298 153.92 449.838 153.92C451.358 153.92 452.718 154.28 453.918 155C455.138 155.7 456.098 156.67 456.798 157.91C457.498 159.13 457.848 160.53 457.848 162.11C457.848 163.69 457.498 165.1 456.798 166.34C456.098 167.56 455.138 168.53 453.918 169.25C452.718 169.95 451.358 170.3 449.838 170.3ZM449.838 167.48C450.778 167.48 451.618 167.25 452.358 166.79C453.098 166.31 453.678 165.67 454.098 164.87C454.518 164.05 454.718 163.13 454.698 162.11C454.718 161.07 454.518 160.15 454.098 159.35C453.678 158.53 453.098 157.89 452.358 157.43C451.618 156.97 450.778 156.74 449.838 156.74C448.898 156.74 448.048 156.98 447.288 157.46C446.548 157.92 445.968 158.56 445.548 159.38C445.128 160.18 444.928 161.09 444.948 162.11C444.928 163.13 445.128 164.05 445.548 164.87C445.968 165.67 446.548 166.31 447.288 166.79C448.048 167.25 448.898 167.48 449.838 167.48ZM461.215 170V154.25H464.305V157.49L463.765 157.85C463.965 157.15 464.355 156.51 464.935 155.93C465.515 155.33 466.205 154.85 467.005 154.49C467.805 154.11 468.625 153.92 469.465 153.92C470.665 153.92 471.665 154.16 472.465 154.64C473.265 155.1 473.865 155.81 474.265 156.77C474.665 157.73 474.865 158.94 474.865 160.4V170H471.775V160.61C471.775 159.71 471.655 158.97 471.415 158.39C471.175 157.79 470.805 157.36 470.305 157.1C469.805 156.82 469.185 156.7 468.445 156.74C467.845 156.74 467.295 156.84 466.795 157.04C466.295 157.22 465.855 157.48 465.475 157.82C465.115 158.16 464.825 158.56 464.605 159.02C464.405 159.46 464.305 159.94 464.305 160.46V170H462.775C462.515 170 462.255 170 461.995 170C461.735 170 461.475 170 461.215 170ZM486.106 176.9C484.986 176.9 483.866 176.72 482.746 176.36C481.646 176.02 480.756 175.57 480.076 175.01L481.216 172.61C481.616 172.91 482.086 173.17 482.626 173.39C483.166 173.63 483.736 173.81 484.336 173.93C484.936 174.07 485.526 174.14 486.106 174.14C487.206 174.14 488.126 173.96 488.866 173.6C489.606 173.24 490.166 172.71 490.546 172.01C490.926 171.31 491.116 170.44 491.116 169.4V166.37L491.446 166.58C491.346 167.2 491.016 167.8 490.456 168.38C489.916 168.94 489.236 169.4 488.416 169.76C487.596 170.12 486.756 170.3 485.896 170.3C484.396 170.3 483.056 169.95 481.876 169.25C480.716 168.53 479.796 167.56 479.116 166.34C478.436 165.1 478.096 163.69 478.096 162.11C478.096 160.53 478.426 159.13 479.086 157.91C479.766 156.67 480.686 155.7 481.846 155C483.026 154.28 484.346 153.92 485.806 153.92C486.406 153.92 486.986 154 487.546 154.16C488.106 154.3 488.626 154.51 489.106 154.79C489.586 155.05 490.016 155.34 490.396 155.66C490.776 155.98 491.086 156.32 491.326 156.68C491.566 157.04 491.716 157.38 491.776 157.7L491.116 157.94V154.25H494.206V169.04C494.206 170.3 494.016 171.41 493.636 172.37C493.276 173.35 492.746 174.17 492.046 174.83C491.346 175.51 490.496 176.02 489.496 176.36C488.496 176.72 487.366 176.9 486.106 176.9ZM486.226 167.45C487.206 167.45 488.076 167.22 488.836 166.76C489.596 166.3 490.186 165.67 490.606 164.87C491.026 164.07 491.236 163.15 491.236 162.11C491.236 161.07 491.016 160.15 490.576 159.35C490.156 158.53 489.566 157.89 488.806 157.43C488.066 156.97 487.206 156.74 486.226 156.74C485.266 156.74 484.406 156.98 483.646 157.46C482.906 157.92 482.316 158.56 481.876 159.38C481.456 160.18 481.246 161.09 481.246 162.11C481.246 163.13 481.456 164.05 481.876 164.87C482.316 165.67 482.906 166.3 483.646 166.76C484.406 167.22 485.266 167.45 486.226 167.45Z" fill="#1C2745"/>
<path d="M55.64 233V212H64.7C66.02 212 67.19 212.3 68.21 212.9C69.25 213.5 70.07 214.32 70.67 215.36C71.29 216.4 71.6 217.57 71.6 218.87C71.6 220.23 71.29 221.45 70.67 222.53C70.07 223.59 69.25 224.43 68.21 225.05C67.19 225.67 66.02 225.98 64.7 225.98H60.74V233H55.64ZM60.65 221.51H63.98C64.42 221.51 64.82 221.4 65.18 221.18C65.54 220.96 65.83 220.66 66.05 220.28C66.27 219.9 66.38 219.46 66.38 218.96C66.38 218.44 66.27 218 66.05 217.64C65.83 217.28 65.54 217 65.18 216.8C64.82 216.6 64.42 216.5 63.98 216.5H60.65V221.51ZM75.0233 233V210.8H79.8233V233H75.0233ZM91.4016 233.3C89.6416 233.3 88.1116 232.95 86.8116 232.25C85.5116 231.53 84.5016 230.56 83.7816 229.34C83.0616 228.1 82.7016 226.69 82.7016 225.11C82.7016 223.89 82.9016 222.77 83.3016 221.75C83.7016 220.73 84.2616 219.85 84.9816 219.11C85.7016 218.35 86.5516 217.77 87.5316 217.37C88.5316 216.95 89.6216 216.74 90.8016 216.74C91.9216 216.74 92.9416 216.94 93.8616 217.34C94.8016 217.74 95.6116 218.3 96.2916 219.02C96.9716 219.74 97.4916 220.59 97.8516 221.57C98.2116 222.55 98.3716 223.62 98.3316 224.78L98.3016 226.07H85.6116L84.9216 223.37H94.4016L93.8916 223.94V223.34C93.8516 222.84 93.6916 222.4 93.4116 222.02C93.1516 221.62 92.8016 221.31 92.3616 221.09C91.9216 220.87 91.4216 220.76 90.8616 220.76C90.0816 220.76 89.4116 220.92 88.8516 221.24C88.3116 221.54 87.9016 221.99 87.6216 222.59C87.3416 223.17 87.2016 223.89 87.2016 224.75C87.2016 225.63 87.3816 226.4 87.7416 227.06C88.1216 227.7 88.6616 228.2 89.3616 228.56C90.0816 228.92 90.9316 229.1 91.9116 229.1C92.5916 229.1 93.1916 229 93.7116 228.8C94.2516 228.6 94.8316 228.26 95.4516 227.78L97.7016 230.96C97.0816 231.5 96.4216 231.94 95.7216 232.28C95.0216 232.62 94.3016 232.87 93.5616 233.03C92.8416 233.21 92.1216 233.3 91.4016 233.3ZM107.27 233.27C105.93 233.27 104.73 232.92 103.67 232.22C102.63 231.5 101.8 230.52 101.18 229.28C100.56 228.02 100.25 226.6 100.25 225.02C100.25 223.4 100.56 221.97 101.18 220.73C101.8 219.49 102.65 218.52 103.73 217.82C104.81 217.1 106.04 216.74 107.42 216.74C108.18 216.74 108.87 216.85 109.49 217.07C110.13 217.29 110.69 217.6 111.17 218C111.65 218.38 112.06 218.83 112.4 219.35C112.74 219.85 112.99 220.39 113.15 220.97L112.16 220.85V217.07H116.93V233H112.07V229.16L113.15 229.13C112.99 229.69 112.73 230.22 112.37 230.72C112.01 231.22 111.57 231.66 111.05 232.04C110.53 232.42 109.95 232.72 109.31 232.94C108.67 233.16 107.99 233.27 107.27 233.27ZM108.59 229.22C109.33 229.22 109.97 229.05 110.51 228.71C111.05 228.37 111.47 227.89 111.77 227.27C112.07 226.63 112.22 225.88 112.22 225.02C112.22 224.16 112.07 223.42 111.77 222.8C111.47 222.16 111.05 221.67 110.51 221.33C109.97 220.97 109.33 220.79 108.59 220.79C107.87 220.79 107.24 220.97 106.7 221.33C106.18 221.67 105.77 222.16 105.47 222.8C105.17 223.42 105.02 224.16 105.02 225.02C105.02 225.88 105.17 226.63 105.47 227.27C105.77 227.89 106.18 228.37 106.7 228.71C107.24 229.05 107.87 229.22 108.59 229.22ZM126.535 233.3C124.975 233.3 123.595 233.05 122.395 232.55C121.215 232.05 120.275 231.38 119.575 230.54L122.485 228.02C123.105 228.64 123.805 229.1 124.585 229.4C125.365 229.68 126.105 229.82 126.805 229.82C127.085 229.82 127.335 229.79 127.555 229.73C127.775 229.67 127.955 229.59 128.095 229.49C128.255 229.37 128.375 229.24 128.455 229.1C128.535 228.94 128.575 228.76 128.575 228.56C128.575 228.16 128.395 227.85 128.035 227.63C127.855 227.53 127.555 227.41 127.135 227.27C126.715 227.13 126.175 226.97 125.515 226.79C124.575 226.55 123.755 226.27 123.055 225.95C122.375 225.61 121.815 225.22 121.375 224.78C120.975 224.36 120.665 223.9 120.445 223.4C120.225 222.88 120.115 222.3 120.115 221.66C120.115 220.92 120.285 220.25 120.625 219.65C120.985 219.05 121.455 218.53 122.035 218.09C122.635 217.65 123.315 217.32 124.075 217.1C124.855 216.86 125.655 216.74 126.475 216.74C127.355 216.74 128.195 216.84 128.995 217.04C129.795 217.24 130.535 217.52 131.215 217.88C131.915 218.24 132.535 218.67 133.075 219.17L130.555 221.99C130.195 221.65 129.785 221.35 129.325 221.09C128.885 220.81 128.425 220.59 127.945 220.43C127.465 220.27 127.025 220.19 126.625 220.19C126.325 220.19 126.055 220.22 125.815 220.28C125.595 220.32 125.405 220.4 125.245 220.52C125.085 220.62 124.965 220.75 124.885 220.91C124.805 221.05 124.765 221.22 124.765 221.42C124.765 221.62 124.815 221.81 124.915 221.99C125.035 222.17 125.195 222.32 125.395 222.44C125.595 222.56 125.915 222.7 126.355 222.86C126.795 223 127.395 223.18 128.155 223.4C129.095 223.66 129.905 223.95 130.585 224.27C131.265 224.59 131.805 224.97 132.205 225.41C132.525 225.75 132.765 226.15 132.925 226.61C133.085 227.05 133.165 227.53 133.165 228.05C133.165 229.07 132.875 229.98 132.295 230.78C131.735 231.56 130.955 232.18 129.955 232.64C128.955 233.08 127.815 233.3 126.535 233.3ZM143.609 233.3C141.849 233.3 140.319 232.95 139.019 232.25C137.719 231.53 136.709 230.56 135.989 229.34C135.269 228.1 134.909 226.69 134.909 225.11C134.909 223.89 135.109 222.77 135.509 221.75C135.909 220.73 136.469 219.85 137.189 219.11C137.909 218.35 138.759 217.77 139.739 217.37C140.739 216.95 141.829 216.74 143.009 216.74C144.129 216.74 145.149 216.94 146.069 217.34C147.009 217.74 147.819 218.3 148.499 219.02C149.179 219.74 149.699 220.59 150.059 221.57C150.419 222.55 150.579 223.62 150.539 224.78L150.509 226.07H137.819L137.129 223.37H146.609L146.099 223.94V223.34C146.059 222.84 145.899 222.4 145.619 222.02C145.359 221.62 145.009 221.31 144.569 221.09C144.129 220.87 143.629 220.76 143.069 220.76C142.289 220.76 141.619 220.92 141.059 221.24C140.519 221.54 140.109 221.99 139.829 222.59C139.549 223.17 139.409 223.89 139.409 224.75C139.409 225.63 139.589 226.4 139.949 227.06C140.329 227.7 140.869 228.2 141.569 228.56C142.289 228.92 143.139 229.1 144.119 229.1C144.799 229.1 145.399 229 145.919 228.8C146.459 228.6 147.039 228.26 147.659 227.78L149.909 230.96C149.289 231.5 148.629 231.94 147.929 232.28C147.229 232.62 146.509 232.87 145.769 233.03C145.049 233.21 144.329 233.3 143.609 233.3ZM164.526 233V213.05H169.326V233H164.526ZM161.706 221.27V217.07H172.416V221.27H161.706ZM175.159 233V217.07H179.719L179.929 222.26L179.029 221.27C179.269 220.41 179.659 219.64 180.199 218.96C180.759 218.28 181.409 217.74 182.149 217.34C182.889 216.94 183.679 216.74 184.519 216.74C184.879 216.74 185.209 216.77 185.509 216.83C185.829 216.89 186.119 216.96 186.379 217.04L185.059 222.35C184.839 222.21 184.539 222.1 184.159 222.02C183.799 221.92 183.419 221.87 183.019 221.87C182.579 221.87 182.169 221.95 181.789 222.11C181.409 222.25 181.089 222.46 180.829 222.74C180.569 223.02 180.359 223.35 180.199 223.73C180.059 224.11 179.989 224.54 179.989 225.02V233H175.159ZM194.242 233.33C193.062 233.33 192.052 233.08 191.212 232.58C190.392 232.06 189.752 231.32 189.292 230.36C188.852 229.4 188.632 228.25 188.632 226.91V217.07H193.462V226.25C193.462 226.89 193.562 227.44 193.762 227.9C193.962 228.36 194.262 228.72 194.662 228.98C195.062 229.22 195.542 229.34 196.102 229.34C196.522 229.34 196.902 229.27 197.242 229.13C197.602 228.99 197.902 228.8 198.142 228.56C198.402 228.3 198.602 228.01 198.742 227.69C198.882 227.35 198.952 226.98 198.952 226.58V217.07H203.782V233H199.252L199.042 229.73L199.942 229.37C199.702 230.13 199.302 230.81 198.742 231.41C198.182 231.99 197.512 232.46 196.732 232.82C195.952 233.16 195.122 233.33 194.242 233.33ZM210.07 239.9L213.7 231.35L213.76 233.81L206.08 217.07H211.51L214.87 225.08C215.05 225.48 215.22 225.91 215.38 226.37C215.54 226.83 215.66 227.27 215.74 227.69L215.08 228.08C215.2 227.78 215.33 227.41 215.47 226.97C215.63 226.51 215.8 226.02 215.98 225.5L218.92 217.07H224.38L217.6 233L214.84 239.9H210.07ZM242.153 233.27C240.813 233.27 239.613 232.92 238.553 232.22C237.513 231.5 236.683 230.52 236.063 229.28C235.443 228.02 235.133 226.6 235.133 225.02C235.133 223.4 235.443 221.97 236.063 220.73C236.683 219.49 237.533 218.52 238.613 217.82C239.693 217.1 240.923 216.74 242.303 216.74C243.063 216.74 243.753 216.85 244.373 217.07C245.013 217.29 245.573 217.6 246.053 218C246.533 218.38 246.943 218.83 247.283 219.35C247.623 219.85 247.873 220.39 248.033 220.97L247.043 220.85V217.07H251.813V233H246.953V229.16L248.033 229.13C247.873 229.69 247.613 230.22 247.253 230.72C246.893 231.22 246.453 231.66 245.933 232.04C245.413 232.42 244.833 232.72 244.193 232.94C243.553 233.16 242.873 233.27 242.153 233.27ZM243.473 229.22C244.213 229.22 244.853 229.05 245.393 228.71C245.933 228.37 246.353 227.89 246.653 227.27C246.953 226.63 247.103 225.88 247.103 225.02C247.103 224.16 246.953 223.42 246.653 222.8C246.353 222.16 245.933 221.67 245.393 221.33C244.853 220.97 244.213 220.79 243.473 220.79C242.753 220.79 242.123 220.97 241.583 221.33C241.063 221.67 240.653 222.16 240.353 222.8C240.053 223.42 239.903 224.16 239.903 225.02C239.903 225.88 240.053 226.63 240.353 227.27C240.653 227.89 241.063 228.37 241.583 228.71C242.123 229.05 242.753 229.22 243.473 229.22ZM263.338 239.9C262.038 239.9 260.738 239.71 259.438 239.33C258.158 238.95 257.118 238.46 256.318 237.86L257.998 234.5C258.418 234.78 258.878 235.02 259.378 235.22C259.898 235.44 260.438 235.61 260.998 235.73C261.558 235.85 262.128 235.91 262.708 235.91C263.728 235.91 264.558 235.76 265.198 235.46C265.838 235.16 266.318 234.7 266.638 234.08C266.958 233.48 267.118 232.72 267.118 231.8V229.13L268.048 229.28C267.908 229.94 267.558 230.54 266.998 231.08C266.458 231.62 265.788 232.06 264.988 232.4C264.188 232.72 263.338 232.88 262.438 232.88C260.998 232.88 259.708 232.55 258.568 231.89C257.448 231.21 256.558 230.28 255.898 229.1C255.258 227.9 254.938 226.52 254.938 224.96C254.938 223.36 255.258 221.95 255.898 220.73C256.538 219.49 257.418 218.52 258.538 217.82C259.658 217.1 260.918 216.74 262.318 216.74C262.918 216.74 263.488 216.81 264.028 216.95C264.588 217.09 265.098 217.28 265.558 217.52C266.038 217.74 266.458 218.01 266.818 218.33C267.198 218.63 267.498 218.96 267.718 219.32C267.958 219.68 268.118 220.05 268.198 220.43L267.208 220.67L267.388 217.07H271.948V231.71C271.948 233.01 271.748 234.16 271.348 235.16C270.968 236.18 270.398 237.04 269.638 237.74C268.898 238.46 267.998 239 266.938 239.36C265.878 239.72 264.678 239.9 263.338 239.9ZM263.458 229.16C264.238 229.16 264.908 228.99 265.468 228.65C266.048 228.29 266.488 227.8 266.788 227.18C267.108 226.56 267.268 225.83 267.268 224.99C267.268 224.15 267.108 223.42 266.788 222.8C266.488 222.16 266.048 221.67 265.468 221.33C264.908 220.97 264.238 220.79 263.458 220.79C262.698 220.79 262.038 220.97 261.478 221.33C260.918 221.67 260.478 222.16 260.158 222.8C259.858 223.42 259.708 224.15 259.708 224.99C259.708 225.83 259.858 226.56 260.158 227.18C260.478 227.8 260.918 228.29 261.478 228.65C262.038 228.99 262.698 229.16 263.458 229.16ZM281.996 233.27C280.656 233.27 279.456 232.92 278.396 232.22C277.356 231.5 276.526 230.52 275.906 229.28C275.286 228.02 274.976 226.6 274.976 225.02C274.976 223.4 275.286 221.97 275.906 220.73C276.526 219.49 277.376 218.52 278.456 217.82C279.536 217.1 280.766 216.74 282.146 216.74C282.906 216.74 283.596 216.85 284.216 217.07C284.856 217.29 285.416 217.6 285.896 218C286.376 218.38 286.786 218.83 287.126 219.35C287.466 219.85 287.716 220.39 287.876 220.97L286.886 220.85V217.07H291.656V233H286.796V229.16L287.876 229.13C287.716 229.69 287.456 230.22 287.096 230.72C286.736 231.22 286.296 231.66 285.776 232.04C285.256 232.42 284.676 232.72 284.036 232.94C283.396 233.16 282.716 233.27 281.996 233.27ZM283.316 229.22C284.056 229.22 284.696 229.05 285.236 228.71C285.776 228.37 286.196 227.89 286.496 227.27C286.796 226.63 286.946 225.88 286.946 225.02C286.946 224.16 286.796 223.42 286.496 222.8C286.196 222.16 285.776 221.67 285.236 221.33C284.696 220.97 284.056 220.79 283.316 220.79C282.596 220.79 281.966 220.97 281.426 221.33C280.906 221.67 280.496 222.16 280.196 222.8C279.896 223.42 279.746 224.16 279.746 225.02C279.746 225.88 279.896 226.63 280.196 227.27C280.496 227.89 280.906 228.37 281.426 228.71C281.966 229.05 282.596 229.22 283.316 229.22ZM296.162 233V217.07H300.962V233H296.162ZM298.562 213.92C297.662 213.92 296.952 213.71 296.432 213.29C295.932 212.85 295.682 212.23 295.682 211.43C295.682 210.71 295.942 210.12 296.462 209.66C296.982 209.2 297.682 208.97 298.562 208.97C299.462 208.97 300.162 209.19 300.662 209.63C301.162 210.05 301.412 210.65 301.412 211.43C301.412 212.17 301.152 212.77 300.632 213.23C300.132 213.69 299.442 213.92 298.562 213.92ZM305.472 233V217.07H310.032L310.182 220.31L309.222 220.67C309.442 219.95 309.832 219.3 310.392 218.72C310.972 218.12 311.662 217.64 312.462 217.28C313.262 216.92 314.102 216.74 314.982 216.74C316.182 216.74 317.192 216.99 318.012 217.49C318.832 217.97 319.452 218.7 319.872 219.68C320.292 220.64 320.502 221.82 320.502 223.22V233H315.672V223.61C315.672 222.97 315.582 222.44 315.402 222.02C315.222 221.6 314.942 221.29 314.562 221.09C314.202 220.87 313.752 220.77 313.212 220.79C312.792 220.79 312.402 220.86 312.042 221C311.682 221.12 311.372 221.31 311.112 221.57C310.852 221.81 310.642 222.09 310.482 222.41C310.342 222.73 310.272 223.08 310.272 223.46V233H307.902C307.342 233 306.862 233 306.462 233C306.062 233 305.732 233 305.472 233ZM334.154 233V210.8H338.954V233H334.154ZM348.823 233.27C347.483 233.27 346.283 232.92 345.222 232.22C344.183 231.5 343.353 230.52 342.733 229.28C342.113 228.02 341.802 226.6 341.802 225.02C341.802 223.4 342.113 221.97 342.733 220.73C343.353 219.49 344.203 218.52 345.283 217.82C346.363 217.1 347.593 216.74 348.973 216.74C349.733 216.74 350.423 216.85 351.043 217.07C351.683 217.29 352.243 217.6 352.723 218C353.203 218.38 353.613 218.83 353.953 219.35C354.293 219.85 354.543 220.39 354.703 220.97L353.713 220.85V217.07H358.483V233H353.623V229.16L354.703 229.13C354.543 229.69 354.283 230.22 353.923 230.72C353.563 231.22 353.123 231.66 352.603 232.04C352.083 232.42 351.503 232.72 350.863 232.94C350.223 233.16 349.543 233.27 348.823 233.27ZM350.143 229.22C350.883 229.22 351.523 229.05 352.063 228.71C352.603 228.37 353.023 227.89 353.323 227.27C353.623 226.63 353.773 225.88 353.773 225.02C353.773 224.16 353.623 223.42 353.323 222.8C353.023 222.16 352.603 221.67 352.063 221.33C351.523 220.97 350.883 220.79 350.143 220.79C349.423 220.79 348.793 220.97 348.253 221.33C347.733 221.67 347.323 222.16 347.023 222.8C346.723 223.42 346.573 224.16 346.573 225.02C346.573 225.88 346.723 226.63 347.023 227.27C347.323 227.89 347.733 228.37 348.253 228.71C348.793 229.05 349.423 229.22 350.143 229.22ZM364.038 233V213.05H368.838V233H364.038ZM361.218 221.27V217.07H371.928V221.27H361.218ZM382.115 233.3C380.355 233.3 378.825 232.95 377.525 232.25C376.225 231.53 375.215 230.56 374.495 229.34C373.775 228.1 373.415 226.69 373.415 225.11C373.415 223.89 373.615 222.77 374.015 221.75C374.415 220.73 374.975 219.85 375.695 219.11C376.415 218.35 377.265 217.77 378.245 217.37C379.245 216.95 380.335 216.74 381.515 216.74C382.635 216.74 383.655 216.94 384.575 217.34C385.515 217.74 386.325 218.3 387.005 219.02C387.685 219.74 388.205 220.59 388.565 221.57C388.925 222.55 389.085 223.62 389.045 224.78L389.015 226.07H376.325L375.635 223.37H385.115L384.605 223.94V223.34C384.565 222.84 384.405 222.4 384.125 222.02C383.865 221.62 383.515 221.31 383.075 221.09C382.635 220.87 382.135 220.76 381.575 220.76C380.795 220.76 380.125 220.92 379.565 221.24C379.025 221.54 378.615 221.99 378.335 222.59C378.055 223.17 377.915 223.89 377.915 224.75C377.915 225.63 378.095 226.4 378.455 227.06C378.835 227.7 379.375 228.2 380.075 228.56C380.795 228.92 381.645 229.1 382.625 229.1C383.305 229.1 383.905 229 384.425 228.8C384.965 228.6 385.545 228.26 386.165 227.78L388.415 230.96C387.795 231.5 387.135 231.94 386.435 232.28C385.735 232.62 385.015 232.87 384.275 233.03C383.555 233.21 382.835 233.3 382.115 233.3ZM392.103 233V217.07H396.663L396.873 222.26L395.973 221.27C396.213 220.41 396.603 219.64 397.143 218.96C397.703 218.28 398.353 217.74 399.093 217.34C399.833 216.94 400.623 216.74 401.463 216.74C401.823 216.74 402.153 216.77 402.453 216.83C402.773 216.89 403.063 216.96 403.323 217.04L402.003 222.35C401.783 222.21 401.483 222.1 401.103 222.02C400.743 221.92 400.363 221.87 399.963 221.87C399.523 221.87 399.113 221.95 398.733 222.11C398.353 222.25 398.033 222.46 397.773 222.74C397.513 223.02 397.303 223.35 397.143 223.73C397.003 224.11 396.933 224.54 396.933 225.02V233H392.103ZM416.354 225.35C416.194 224.13 416.034 222.87 415.874 221.57C415.714 220.27 415.584 218.98 415.484 217.7C415.384 216.42 415.334 215.19 415.334 214.01V211.67H420.404V214.01C420.404 215.21 420.354 216.46 420.254 217.76C420.154 219.06 420.024 220.36 419.864 221.66C419.704 222.94 419.534 224.17 419.354 225.35H416.354ZM417.854 233.33C417.034 233.33 416.394 233.1 415.934 232.64C415.474 232.18 415.244 231.52 415.244 230.66C415.244 229.86 415.484 229.21 415.964 228.71C416.444 228.21 417.074 227.96 417.854 227.96C418.674 227.96 419.304 228.2 419.744 228.68C420.204 229.14 420.434 229.8 420.434 230.66C420.434 231.44 420.194 232.08 419.714 232.58C419.234 233.08 418.614 233.33 417.854 233.33Z" fill="#1C2745"/>
<path d="M41.3022 77.1898L40.981 78.7932L43.1575 79.2252C44.2523 79.4346 45.3734 79.5262 45.3734 79.5262L45.5766 77.9031C44.8575 77.8408 44.1421 77.7425 43.4329 77.6086L41.3022 77.1898Z" fill="#FBE366"/>
<path d="M49.2217 67.4251C49.2217 67.4251 51.7064 64.5389 54.8925 64.6371C57.7443 64.7156 54.9318 67.3531 51.0901 69.7747L49.2217 67.4251Z" fill="#F7B2A0"/>
<path d="M13.938 75.1937C11.4467 75.6453 10.6076 77.7068 11.8204 80.9268C13.6692 85.868 23.7324 88.7019 32.4911 87.9165C42.4429 87.0199 51.6867 69.5915 51.6867 69.5915C51.6867 69.5915 52.0014 67.2746 49.7199 66.882C49.7199 66.882 39.8402 77.3534 29.9802 78.3548C25.1551 78.8718 19.1958 74.2447 13.938 75.1937Z" fill="#EDA503"/>
<path d="M24.9125 76.2932C29.0427 79.4411 32.5567 87.118 34.2088 112.223C34.5628 117.741 2.49142 119.076 2.37342 113.532C2.08496 98.8003 4.60897 92.7465 8.8244 79.4673C10.0045 75.8678 16.7636 70.0103 24.9125 76.2932Z" fill="#FFB502"/>
<path d="M56.125 90.05C56.125 90.05 61.1993 83.7017 60.9108 86.5421C60.6223 89.3825 61.7499 91.0448 57.5148 92.7072L56.125 90.05Z" fill="#F7B2A0"/>
<path d="M24.8732 77.7133C19.3008 78.5052 18.0027 81.5682 18.5927 84.9583C19.4843 90.1548 22.1788 98.3814 31.3439 102.328C40.509 106.274 58.1312 92.6614 58.1312 92.6614C58.1312 92.6614 58.8786 90.4427 56.7283 89.6377C56.7283 89.6377 41.3744 97.6222 34.1498 92.3276C30.6621 89.7686 30.1573 76.9803 24.8732 77.7133Z" fill="#FFB502"/>
<path d="M6.1365 186.093C4.06484 184.666 4.05828 184.365 4.35985 183.671C4.63064 183.04 4.95296 182.431 5.32357 181.852L1.22614 180.582C0.86735 181.831 0.647493 183.115 0.570557 184.411C0.918018 184.686 3.69771 186.905 6.1365 186.093Z" fill="#FBC6B4"/>
<path d="M0.5573 184.411C0.546557 184.388 0.530883 184.368 0.511408 184.352C-0.753876 187.86 4.30726 188.482 7.10662 188.194C9.90598 187.906 6.13635 186.093 6.13635 186.093C3.69757 186.905 0.917873 184.686 0.5573 184.411Z" fill="#FFB502"/>
<path d="M0.000253889 180.196C-0.0390814 182.055 4.50414 183.855 5.35641 182.664C12.6662 172.447 18.2846 152.787 20.2251 144.835C20.3104 144.482 20.4021 144.181 20.4874 143.847C21.5822 140.352 22.795 140.712 25.5485 125.123C26.4532 120.084 25.6862 111.844 25.6862 111.844L18.7697 110.842L2.8914 108.414C-0.891346 114.403 0.878741 128.526 1.19342 134.344C1.48844 139.259 2.35381 147.093 2.29481 150.994C2.03258 164.607 0.183818 167.827 0.000253889 180.196Z" fill="#1C2745"/>
<path d="M27.9546 187.166C25.6272 186.145 25.5748 185.857 25.7321 185.105C25.8968 184.438 26.1026 183.783 26.3484 183.141L22.0936 182.644C21.9674 183.938 21.9871 185.242 22.1526 186.532C22.5394 186.741 25.6862 188.416 27.9546 187.166Z" fill="#FBC6B4"/>
<path d="M22.1526 186.545L22.0805 186.486C21.4839 190.183 26.5647 189.856 29.2919 189.064C32.0192 188.272 27.9808 187.166 27.9808 187.166C25.6862 188.416 22.5394 186.741 22.1526 186.545Z" fill="#FFB502"/>
<path d="M13.6037 137.198C14.7968 141.982 17.452 146.917 17.452 153.631C17.452 167.29 18.7631 170.314 20.7758 182.513C20.9987 183.927 24.0013 184.817 25.6206 184.476C25.8426 184.447 26.0541 184.364 26.2368 184.234C26.3718 184.176 26.4795 184.068 26.5384 183.933C31.8224 172.559 35.3757 153.173 35.8477 145.045C36.1231 140.235 35.9985 140.83 35.8477 123.677C35.8019 118.546 33.5597 110.587 33.5597 110.587L12.2073 111.242C9.55868 117.891 12.2335 131.543 13.6037 137.198Z" fill="#27355C"/>
<path d="M25.6206 184.49C25.8426 184.46 26.0541 184.377 26.2369 184.247C29.4689 175.248 30.826 165.68 32.0454 157.414C33.0681 150.398 34.2023 142.42 34.2416 134.586C34.2416 126.006 32.8714 118.447 30.1114 112.106C30.0985 112.075 30.0798 112.048 30.0564 112.025C30.0329 112.002 30.0052 111.984 29.9747 111.972C29.9443 111.96 29.9117 111.954 29.8789 111.954C29.8461 111.955 29.8137 111.962 29.7836 111.975C29.7235 112.002 29.6755 112.05 29.6489 112.111C29.6223 112.171 29.6189 112.239 29.6394 112.302C32.3732 118.572 33.763 126.085 33.7368 134.586C33.7368 142.394 32.5764 150.346 31.5537 157.362C30.3343 165.7 28.9182 175.425 25.6206 184.49Z" fill="white"/>
<path d="M27.3184 78.5118C27.3184 78.5118 21.5624 85.7698 24.5518 98.2832C24.5518 98.2832 26.7087 106.196 33.6973 105.482L35.0085 117.119C35.0085 117.119 20.8215 123.166 1.06213 113.63C1.06213 113.63 -0.537505 94.952 9.36842 78.2893C9.36842 78.2893 11.4466 75.1086 13.7805 74.3625C13.7805 74.3625 2.24219 93.6104 11.0467 95.3054C19.8513 97.0005 24.9124 76.2932 24.9124 76.2932L27.3184 78.5118Z" fill="#1C2745"/>
<path d="M16.3176 69.9317C16.3176 69.9317 14.8032 76.2931 16.0554 77.7853C17.3076 79.2775 23.9224 77.7853 23.634 75.3965C23.369 73.4157 22.9459 71.4591 22.3687 69.5456L16.3176 69.9317Z" fill="#FBC6B4"/>
<path d="M12.5874 63.374C12.5874 68.9762 15.7277 73.5182 19.5956 73.5182C21.3329 73.5182 25.2009 73.996 26.4269 72.4842C27.9282 70.6255 27.9413 65.861 27.0824 62.8897C25.1157 56.0505 22.1852 53.7926 18.3107 53.7926C14.4362 53.7926 12.5874 57.7652 12.5874 63.374Z" fill="#FBC6B4"/>
<path d="M19.2219 74.1727C16.7831 74.2971 12.7119 73.4528 10.4633 68.4658C8.40471 63.8845 9.59132 56.3058 14.1936 53.9759C15.6586 53.2564 17.2642 52.867 18.8966 52.8354C20.5291 52.8037 22.1486 53.1305 23.6406 53.7926C27.8757 55.8018 27.3315 58.3739 26.4727 58.7927C24.6895 59.6697 23.2866 58.2757 23.6406 60.7103C23.9159 62.5821 23.7717 66.7249 22.0278 66.9736C20.284 67.2223 18.7958 67.2288 19.2219 69.7485C19.5366 71.6596 21.6738 74.0418 19.2219 74.1727Z" fill="#000644"/>
<path d="M22.6835 61.993C22.6835 61.993 32.2419 56.4563 29.5016 53.7271C27.2726 51.5085 19.7202 54.4405 19.7202 54.4405L22.6835 61.993Z" fill="#EDA503"/>
<path d="M25.7713 57.0322C24.8535 62.1108 20.4873 64.8858 9.51275 67.8112C9.51275 67.8112 3.98615 57.9942 11.1124 52.7585C17.3929 48.1511 26.3745 53.6748 25.7713 57.0322Z" fill="#FFB502"/>
</svg>
